<svg xmlns="http://www.w3.org/2000/svg" viewBox="0 0 512 512" width="512" height="512">
  <title>Teamp — App icon (maskable, safe-zone fitted)</title>
  <style>@import url('https://fonts.googleapis.com/css2?family=Luckiest+Guy&amp;display=swap');.wm{font-family:'Luckiest Guy','Arial Black',sans-serif;font-size:200px;text-anchor:middle;letter-spacing:-2px;}</style>
  
  <defs>
    <linearGradient id="bg" x1="0" y1="0" x2="512" y2="512" gradientUnits="userSpaceOnUse">
      <stop offset="0" stop-color="#2D2580"></stop>
      <stop offset="0.55" stop-color="#534AB7"></stop>
      <stop offset="1" stop-color="#7C6FDE"></stop>
    </linearGradient>
    <radialGradient id="hl" cx="0" cy="0" r="1" gradientUnits="userSpaceOnUse" gradientTransform="translate(72 72) rotate(45) scale(320)">
      <stop offset="0" stop-color="#9A8FF0" stop-opacity="0.4"></stop>
      <stop offset="1" stop-color="#9A8FF0" stop-opacity="0"></stop>
    </radialGradient>
  </defs>

  
  <rect width="512" height="512" fill="url(#bg)"></rect>
  <rect width="512" height="512" fill="url(#hl)"></rect>

  
  <g transform="translate(256 300) scale(0.55)">
    <g transform="skewX(-10)">
      <text class="wm" x="8" y="8" fill="#1A1450">TEAMP</text>
      <text class="wm" x="6.4" y="6.4" fill="#1A1450">TEAMP</text>
      <text class="wm" x="4.8" y="4.8" fill="#1A1450">TEAMP</text>
      <text class="wm" x="3.2" y="3.2" fill="#1A1450">TEAMP</text>
      <text class="wm" x="1.6" y="1.6" fill="#1A1450">TEAMP</text>
      <text class="wm" x="0" y="0" fill="none" stroke="#B8AEF7" stroke-width="26" stroke-linejoin="round" stroke-linecap="round" paint-order="stroke">TEAMP</text>
      <text class="wm" x="0" y="0" fill="#FFFFFF" stroke="#1A1450" stroke-width="11" stroke-linejoin="round" stroke-linecap="round" paint-order="stroke">TEAMP</text>
    </g>
    <g fill="#1A1450">
      <rect x="-250" y="38" width="30" height="8" rx="4" transform="rotate(-6 -235 42)"></rect>
      <rect x="-218" y="50" width="18" height="7" rx="3.5" transform="rotate(-6 -209 53.5)"></rect>
      <rect x="-140" y="42" width="24" height="7" rx="3.5" transform="rotate(-4 -128 45.5)"></rect>
      <rect x="-54" y="44" width="28" height="8" rx="4" transform="rotate(-3 -40 48)"></rect>
      <rect x="-18" y="56" width="18" height="7" rx="3.5" transform="rotate(-3 -9 59.5)"></rect>
      <rect x="60" y="42" width="30" height="8" rx="4" transform="rotate(-2 75 46)"></rect>
      <rect x="100" y="54" width="16" height="7" rx="3.5" transform="rotate(-2 108 57.5)"></rect>
      <rect x="188" y="44" width="26" height="8" rx="4" transform="rotate(1 201 48)"></rect>
      <rect x="222" y="56" width="18" height="7" rx="3.5" transform="rotate(1 231 59.5)"></rect>
    </g>
  </g>
</svg>