<svg xmlns="http://www.w3.org/2000/svg" viewBox="0 0 820 280">
  <title>Teamp — Pop wordmark (main / light)</title>
  <style>@import url('https://fonts.googleapis.com/css2?family=Luckiest+Guy&amp;display=swap');.wm{font-family:'Luckiest Guy','Arial Black',sans-serif;font-size:200px;text-anchor:middle;letter-spacing:-2px;}</style>
  
  <g transform="translate(410 224)">
    <g transform="skewX(-10)">
      
      <text class="wm" x="9" y="9" fill="#2D2580">TEAMP</text>
      <text class="wm" x="7.5" y="7.5" fill="#2D2580">TEAMP</text>
      <text class="wm" x="6" y="6" fill="#2D2580">TEAMP</text>
      <text class="wm" x="4.5" y="4.5" fill="#2D2580">TEAMP</text>
      <text class="wm" x="3" y="3" fill="#2D2580">TEAMP</text>
      <text class="wm" x="1.5" y="1.5" fill="#2D2580">TEAMP</text>
      
      <text class="wm" x="0" y="0" fill="none" stroke="#7C6FDE" stroke-width="30" stroke-linejoin="round" stroke-linecap="round" paint-order="stroke">TEAMP</text>
      
      <text class="wm" x="0" y="0" fill="#FFFFFF" stroke="#1A1450" stroke-width="12" stroke-linejoin="round" stroke-linecap="round" paint-order="stroke">TEAMP</text>
    </g>
    
    <g fill="#1A1450">
      <rect x="-250" y="38" width="30" height="8" rx="4" transform="rotate(-6 -235 42)"></rect>
      <rect x="-218" y="50" width="18" height="7" rx="3.5" transform="rotate(-6 -209 53.5)"></rect>
      <rect x="-140" y="42" width="24" height="7" rx="3.5" transform="rotate(-4 -128 45.5)"></rect>
      <rect x="-54" y="44" width="28" height="8" rx="4" transform="rotate(-3 -40 48)"></rect>
      <rect x="-18" y="56" width="18" height="7" rx="3.5" transform="rotate(-3 -9 59.5)"></rect>
      <rect x="60" y="42" width="30" height="8" rx="4" transform="rotate(-2 75 46)"></rect>
      <rect x="100" y="54" width="16" height="7" rx="3.5" transform="rotate(-2 108 57.5)"></rect>
      <rect x="188" y="44" width="26" height="8" rx="4" transform="rotate(1 201 48)"></rect>
      <rect x="222" y="56" width="18" height="7" rx="3.5" transform="rotate(1 231 59.5)"></rect>
    </g>
  </g>
</svg>